<?xml version="1.0" standalone="no"?>
<!DOCTYPE svg PUBLIC "-//W3C//DTD SVG 20010904//EN"
 "http://www.w3.org/TR/2001/REC-SVG-20010904/DTD/svg10.dtd">
<svg version="1.0" xmlns="http://www.w3.org/2000/svg"
 width="1000.000000pt" height="1000.000000pt" viewBox="0 0 1000.000000 1000.000000"
 preserveAspectRatio="xMidYMid meet">
<metadata>
Created by potrace 1.16, written by Peter Selinger 2001-2019
</metadata>
<g transform="translate(0.000000,1000.000000) scale(0.100000,-0.100000)"
fill="#000000" stroke="none">
<path d="M1738 8397 c-127 -44 -239 -141 -308 -266 -62 -113 -73 -162 -68
-305 3 -119 4 -123 45 -206 72 -149 160 -239 354 -367 91 -59 292 -161 704
-356 475 -224 579 -273 695 -329 69 -34 172 -82 230 -108 58 -26 146 -68 195
-93 50 -25 142 -68 205 -97 63 -28 124 -57 136 -65 12 -7 88 -44 170 -80 82
-37 168 -77 191 -90 23 -12 113 -55 200 -95 87 -40 172 -80 188 -90 17 -10 71
-36 120 -58 50 -22 133 -60 185 -86 52 -26 165 -79 250 -118 85 -39 164 -77
175 -84 11 -7 97 -47 190 -89 94 -43 175 -81 180 -85 6 -5 82 -42 170 -83 88
-40 220 -102 293 -137 l132 -64 0 -53 c0 -29 -4 -53 -10 -53 -5 0 -80 -34
-167 -76 -87 -42 -212 -101 -278 -131 -66 -30 -124 -58 -130 -63 -5 -4 -86
-43 -178 -84 -93 -42 -178 -83 -190 -90 -12 -8 -98 -49 -192 -91 -93 -43 -179
-83 -190 -91 -11 -7 -91 -45 -178 -84 -87 -39 -168 -77 -180 -85 -12 -7 -74
-37 -137 -65 -63 -29 -160 -75 -215 -102 -55 -28 -138 -67 -185 -88 -47 -21
-146 -67 -220 -103 -146 -70 -430 -205 -715 -340 -391 -184 -575 -272 -695
-329 -69 -33 -172 -82 -230 -108 -339 -155 -577 -288 -702 -393 -67 -56 -133
-144 -176 -234 -35 -75 -37 -83 -40 -199 -5 -147 9 -209 69 -314 171 -296 498
-369 894 -198 180 78 324 142 370 165 28 14 111 52 185 85 74 33 162 73 195
90 33 16 132 61 220 100 88 39 165 74 170 78 6 5 93 45 195 90 102 45 190 85
195 90 6 4 89 42 185 85 96 42 180 80 185 85 6 4 96 46 200 93 105 46 280 126
390 177 192 88 369 170 740 340 94 43 256 116 360 164 105 47 201 92 215 100
14 8 104 49 200 91 96 42 180 80 185 85 6 5 89 43 185 85 96 42 180 81 185 85
6 4 87 42 180 83 94 41 202 91 240 110 39 19 120 56 180 82 61 27 139 63 175
81 36 17 94 44 130 59 80 33 330 163 419 217 144 89 282 221 353 339 101 170
102 286 6 462 -87 160 -286 330 -543 462 -71 37 -135 71 -140 76 -12 9 -297
143 -535 252 -85 38 -164 76 -175 83 -11 7 -87 43 -170 79 -82 37 -188 87
-235 110 -47 23 -114 55 -150 70 -36 15 -105 47 -155 72 -49 25 -155 74 -234
110 -79 35 -160 73 -180 84 -33 18 -96 47 -506 236 -77 35 -171 79 -210 98
-110 54 -425 200 -595 277 -85 39 -159 74 -165 78 -5 4 -89 44 -185 88 -261
119 -474 218 -575 267 -109 53 -365 172 -575 267 -85 39 -160 74 -165 79 -6 4
-82 40 -170 79 -88 40 -180 82 -205 96 -59 31 -184 87 -290 130 -47 19 -96 41
-110 48 -14 8 -70 29 -125 47 -89 29 -114 33 -235 36 -121 3 -142 1 -202 -20z"/>
</g>
</svg>
