<?xml version="1.0" standalone="no"?>
<!DOCTYPE svg PUBLIC "-//W3C//DTD SVG 20010904//EN"
 "http://www.w3.org/TR/2001/REC-SVG-20010904/DTD/svg10.dtd">
<svg version="1.0" xmlns="http://www.w3.org/2000/svg"
 width="1000.000000pt" height="1000.000000pt" viewBox="0 0 1000.000000 1000.000000"
 preserveAspectRatio="xMidYMid meet">
<metadata>
Created by potrace 1.16, written by Peter Selinger 2001-2019
</metadata>
<g transform="translate(0.000000,1000.000000) scale(0.100000,-0.100000)"
fill="#000000" stroke="none">
<path d="M7935 8413 c-51 -13 -213 -67 -235 -79 -14 -7 -54 -25 -90 -40 -104
-42 -293 -126 -315 -140 -11 -7 -96 -47 -190 -89 -93 -42 -174 -80 -180 -84
-5 -5 -80 -40 -165 -79 -210 -95 -466 -214 -575 -267 -101 -49 -314 -148 -575
-267 -96 -44 -179 -84 -185 -88 -5 -4 -80 -39 -165 -78 -175 -79 -460 -212
-595 -277 -49 -24 -148 -70 -220 -103 -384 -177 -463 -213 -496 -231 -20 -11
-101 -49 -180 -84 -79 -36 -184 -85 -234 -110 -49 -25 -119 -57 -155 -72 -36
-15 -103 -47 -150 -70 -47 -23 -152 -73 -235 -110 -82 -36 -159 -72 -170 -79
-11 -7 -90 -45 -175 -83 -691 -315 -940 -458 -1105 -635 -111 -120 -185 -271
-185 -379 0 -100 70 -251 165 -357 61 -68 184 -170 266 -220 89 -54 339 -184
419 -217 36 -15 94 -42 130 -59 36 -18 115 -54 175 -81 61 -26 142 -63 180
-82 39 -19 147 -69 240 -110 94 -41 175 -79 180 -83 6 -4 89 -43 185 -85 96
-42 180 -81 185 -85 6 -5 89 -43 185 -85 96 -42 186 -83 200 -91 14 -8 111
-53 215 -100 105 -47 273 -124 375 -171 102 -47 253 -115 335 -153 83 -37 170
-77 195 -90 46 -24 247 -116 585 -267 105 -47 195 -89 200 -93 6 -5 89 -43
185 -85 96 -43 180 -81 185 -85 6 -5 93 -45 195 -90 102 -45 190 -85 195 -90
6 -4 89 -42 185 -85 96 -42 180 -80 185 -85 6 -4 84 -40 175 -80 91 -40 190
-85 220 -101 50 -25 187 -86 375 -167 153 -66 297 -96 427 -90 203 10 364 109
466 286 59 103 72 156 72 287 0 159 -27 237 -128 367 -108 139 -331 276 -792
487 -58 27 -161 76 -230 109 -120 57 -304 145 -695 329 -285 135 -569 270
-715 340 -74 36 -173 82 -220 103 -47 21 -130 60 -185 88 -55 27 -152 73 -215
102 -63 28 -125 58 -137 65 -12 8 -93 46 -180 85 -87 39 -167 77 -178 84 -11
8 -97 48 -190 91 -94 42 -180 83 -192 91 -12 7 -97 48 -190 90 -92 41 -173 80
-178 84 -6 5 -64 33 -130 63 -66 30 -191 89 -278 131 -87 42 -162 76 -167 76
-6 0 -10 24 -10 53 l0 53 132 64 c73 35 205 97 293 137 88 41 164 78 170 83 5
4 87 42 180 85 94 42 179 82 190 89 11 7 90 45 175 84 85 39 198 92 250 118
52 26 136 64 185 86 50 22 104 48 120 58 17 10 101 50 188 90 87 40 177 83
200 95 23 13 109 53 191 90 82 36 158 73 170 80 12 8 73 37 136 65 63 29 156
72 205 97 50 25 137 67 195 93 58 26 161 74 230 108 116 56 220 105 695 329
576 273 715 349 863 472 73 61 144 147 175 211 12 25 25 47 28 50 20 15 39
123 39 220 0 124 -13 176 -70 281 -70 127 -191 230 -317 269 -51 16 -91 20
-182 19 -64 -1 -125 -4 -136 -6z"/>
</g>
</svg>
